<mxfile host="app.diagrams.net" agent="Mozilla/5.0 (Macintosh; Intel Mac OS X 10_15_7) AppleWebKit/537.36 (KHTML, like Gecko) Chrome/137.0.0.0 Safari/537.36" version="27.0.9">
  <diagram name="Page-1" id="Ir0pa-kYj7QZ2Ep1pYtN">
    <mxGraphModel dx="855" dy="485" grid="1" gridSize="10" guides="1" tooltips="1" connect="1" arrows="1" fold="1" page="1" pageScale="1" pageWidth="1169" pageHeight="827" math="0" shadow="0">
      <root>
        <mxCell id="0" />
        <mxCell id="1" parent="0" />
        <mxCell id="h7rHJvUvpfDrLVz9Q33w-5" value="" style="edgeStyle=orthogonalEdgeStyle;rounded=0;orthogonalLoop=1;jettySize=auto;html=1;" parent="1" source="h7rHJvUvpfDrLVz9Q33w-1" target="h7rHJvUvpfDrLVz9Q33w-2" edge="1">
          <mxGeometry relative="1" as="geometry" />
        </mxCell>
        <mxCell id="h7rHJvUvpfDrLVz9Q33w-1" value="Actor" style="shape=umlActor;verticalLabelPosition=bottom;verticalAlign=top;html=1;outlineConnect=0;" parent="1" vertex="1">
          <mxGeometry x="10" y="174.38" width="50" height="110" as="geometry" />
        </mxCell>
        <mxCell id="h7rHJvUvpfDrLVz9Q33w-14" value="" style="edgeStyle=orthogonalEdgeStyle;curved=1;rounded=0;orthogonalLoop=1;jettySize=auto;html=1;" parent="1" source="h7rHJvUvpfDrLVz9Q33w-2" target="h7rHJvUvpfDrLVz9Q33w-13" edge="1">
          <mxGeometry relative="1" as="geometry" />
        </mxCell>
        <mxCell id="h7rHJvUvpfDrLVz9Q33w-2" value="&lt;font style=&quot;font-size: 18px;&quot;&gt;&lt;b&gt;NGINX&lt;/b&gt;&lt;/font&gt;" style="whiteSpace=wrap;html=1;aspect=fixed;" parent="1" vertex="1">
          <mxGeometry x="225.63" y="143.13" width="173.75" height="173.75" as="geometry" />
        </mxCell>
        <mxCell id="h7rHJvUvpfDrLVz9Q33w-8" value="&lt;i&gt;localhost[:80]/&amp;lt;path&amp;gt;&lt;/i&gt;" style="text;html=1;align=center;verticalAlign=middle;resizable=0;points=[];autosize=1;strokeColor=none;fillColor=none;" parent="1" vertex="1">
          <mxGeometry x="60" y="200" width="130" height="30" as="geometry" />
        </mxCell>
        <mxCell id="h7rHJvUvpfDrLVz9Q33w-10" value="&lt;font style=&quot;font-size: 14px;&quot;&gt;if path == &lt;i style=&quot;&quot;&gt;&quot;foo&quot;&lt;br&gt;&lt;/i&gt;&lt;i style=&quot;&quot;&gt;&lt;font style=&quot;&quot;&gt;toxiproxy:8080/foo&lt;/font&gt;&lt;/i&gt;&lt;/font&gt;" style="text;html=1;align=center;verticalAlign=middle;resizable=0;points=[];autosize=1;strokeColor=none;fillColor=none;" parent="1" vertex="1">
          <mxGeometry x="242.5" y="150" width="140" height="50" as="geometry" />
        </mxCell>
        <mxCell id="h7rHJvUvpfDrLVz9Q33w-11" value="&lt;font style=&quot;font-size: 14px;&quot;&gt;if path == &lt;i style=&quot;&quot;&gt;&quot;bar&quot;&lt;/i&gt;&lt;/font&gt;&lt;div&gt;&lt;font style=&quot;&quot;&gt;&lt;font size=&quot;3&quot;&gt;&lt;i style=&quot;&quot;&gt;&lt;font style=&quot;&quot;&gt;toxiproxy&lt;/font&gt;&lt;/i&gt;&lt;i style=&quot;&quot;&gt;&lt;font style=&quot;&quot;&gt;:8081/bar&lt;/font&gt;&lt;/i&gt;&lt;/font&gt;&lt;span style=&quot;font-size: 8px;&quot;&gt;&lt;i&gt;&lt;/i&gt;&lt;/span&gt;&lt;/font&gt;&lt;/div&gt;" style="text;html=1;align=center;verticalAlign=middle;resizable=0;points=[];autosize=1;strokeColor=none;fillColor=none;" parent="1" vertex="1">
          <mxGeometry x="232.5" y="260" width="160" height="50" as="geometry" />
        </mxCell>
        <mxCell id="lRosYy7zo3g3M6f42C97-3" value="" style="edgeStyle=orthogonalEdgeStyle;rounded=0;orthogonalLoop=1;jettySize=auto;html=1;" edge="1" parent="1" source="h7rHJvUvpfDrLVz9Q33w-13" target="lRosYy7zo3g3M6f42C97-1">
          <mxGeometry relative="1" as="geometry" />
        </mxCell>
        <mxCell id="h7rHJvUvpfDrLVz9Q33w-13" value="&lt;b&gt;&lt;font style=&quot;font-size: 18px;&quot;&gt;Toxip&lt;span style=&quot;background-color: initial;&quot;&gt;roxy&lt;/span&gt;&lt;/font&gt;&lt;/b&gt;" style="whiteSpace=wrap;html=1;aspect=fixed;" parent="1" vertex="1">
          <mxGeometry x="470" y="143.13" width="172.5" height="172.5" as="geometry" />
        </mxCell>
        <mxCell id="OyAfEE2VpKHveiSn5-CV-1" value="&lt;div&gt;&lt;font style=&quot;font-size: 14px;&quot;&gt;if port == 8080&lt;/font&gt;&lt;/div&gt;&lt;div&gt;&lt;font size=&quot;3&quot; style=&quot;&quot;&gt;toxicity: +2s latency&lt;/font&gt;&lt;/div&gt;&lt;div&gt;&lt;span style=&quot;font-size: medium;&quot;&gt;wiremock:8080/foo&lt;/span&gt;&lt;/div&gt;" style="text;html=1;align=center;verticalAlign=middle;resizable=0;points=[];autosize=1;strokeColor=none;fillColor=none;" parent="1" vertex="1">
          <mxGeometry x="476.25" y="140" width="160" height="70" as="geometry" />
        </mxCell>
        <mxCell id="lRosYy7zo3g3M6f42C97-1" value="&lt;b&gt;&lt;font style=&quot;font-size: 18px;&quot;&gt;Wiremock&lt;/font&gt;&lt;/b&gt;" style="whiteSpace=wrap;html=1;aspect=fixed;" vertex="1" parent="1">
          <mxGeometry x="710" y="143.13" width="172.5" height="172.5" as="geometry" />
        </mxCell>
        <mxCell id="lRosYy7zo3g3M6f42C97-2" value="&lt;div&gt;&lt;font style=&quot;font-size: 14px;&quot;&gt;if port == 8081&lt;/font&gt;&lt;/div&gt;&lt;div&gt;&lt;font size=&quot;3&quot; style=&quot;&quot;&gt;toxicity: +5s latency&lt;/font&gt;&lt;/div&gt;&lt;div&gt;&lt;font size=&quot;3&quot; style=&quot;&quot;&gt;wiremock:8080/bar&lt;/font&gt;&lt;/div&gt;" style="text;html=1;align=center;verticalAlign=middle;resizable=0;points=[];autosize=1;strokeColor=none;fillColor=none;" vertex="1" parent="1">
          <mxGeometry x="476.25" y="250" width="160" height="70" as="geometry" />
        </mxCell>
        <mxCell id="lRosYy7zo3g3M6f42C97-4" value="&lt;div&gt;&lt;span style=&quot;font-size: medium; background-color: transparent; color: light-dark(rgb(0, 0, 0), rgb(255, 255, 255));&quot;&gt;:8080/foo&lt;/span&gt;&lt;/div&gt;" style="text;html=1;align=center;verticalAlign=middle;resizable=0;points=[];autosize=1;strokeColor=none;fillColor=none;" vertex="1" parent="1">
          <mxGeometry x="751.25" y="160" width="90" height="30" as="geometry" />
        </mxCell>
        <mxCell id="lRosYy7zo3g3M6f42C97-5" value="&lt;div&gt;&lt;span style=&quot;font-size: medium; background-color: transparent; color: light-dark(rgb(0, 0, 0), rgb(255, 255, 255));&quot;&gt;:8080/bar&lt;/span&gt;&lt;/div&gt;" style="text;html=1;align=center;verticalAlign=middle;resizable=0;points=[];autosize=1;strokeColor=none;fillColor=none;" vertex="1" parent="1">
          <mxGeometry x="751.25" y="270" width="90" height="30" as="geometry" />
        </mxCell>
      </root>
    </mxGraphModel>
  </diagram>
</mxfile>
